<?xml version="1.0" encoding="utf-8"?>
<!-- Generator: Adobe Illustrator 27.7.0, SVG Export Plug-In . SVG Version: 6.00 Build 0)  -->
<svg version="1.1" id="Layer_1" xmlns="http://www.w3.org/2000/svg" xmlns:xlink="http://www.w3.org/1999/xlink" x="0px" y="0px"
	 viewBox="0 0 610.4 109.7" style="enable-background:new 0 0 610.4 109.7;" xml:space="preserve">
<style type="text/css">
	.st0{fill:#053947;}
	.st1{fill:#D0F7F9;}
	.st2{clip-path:url(#SVGID_00000167379978438996230960000003320950397192597931_);}
	.st3{fill:none;stroke:#053947;stroke-width:1.5458;stroke-miterlimit:10;}
	.st4{fill:#F7F1E5;}
	.st5{fill:#FFFFFF;}
	.st6{fill:none;stroke:#BE2222;stroke-width:4;stroke-miterlimit:10;}
	.st7{fill:#F0F0F0;}
	.st8{fill:none;stroke:#28803A;stroke-width:4;stroke-miterlimit:10;}
	.st9{fill:#0A83A0;}
	.st10{fill:none;stroke:#979797;stroke-miterlimit:10;}
	.st11{fill:none;stroke:#0A83A0;stroke-width:2;stroke-miterlimit:10;}
	.st12{clip-path:url(#SVGID_00000156566055509283046600000005471128135069257357_);}
	.st13{fill:none;stroke:#BE2222;stroke-width:2.3726;stroke-miterlimit:10;}
	.st14{fill:none;stroke:#28803A;stroke-width:3;stroke-miterlimit:10;}
</style>
<g>
	<path class="st0" d="M17.5,78.2l7.3-8c4.8,5.1,11.6,8,19.1,8c9.2,0,13.4-3.6,13.4-9.2c0-6.1-5.8-7.8-15.7-10.1
		c-11.1-2.7-21.8-6.5-21.8-19.4c0-11.5,8.8-19.8,24.5-19.8c10.3,0,18.1,3.4,24.1,9.2l-6.8,8c-4.6-4.7-10.4-7.5-17.5-7.5
		c-8,0-12,3.8-12,8.8c0,6,5.5,7.3,15.3,9.8c11.7,2.9,22.1,6.6,22.1,19.7c0,11.9-9.2,20.2-25.8,20.2C32.4,88,23.9,84.6,17.5,78.2z"/>
	<path class="st0" d="M117.7,70.8H90.1l-5.8,16.2H71.8l25-66.4h14.8l25,66.4h-13L117.7,70.8z M114.2,61L104,32.5h-0.2L93.6,61H114.2
		z"/>
	<path class="st0" d="M143.1,87.1V20.7h44.3v9.9h-32.1v19h27.9v9.9h-27.9v27.6H143.1z"/>
	<path class="st0" d="M234.2,80.1c-4.1,4.9-10.1,8-18.8,8c-15.7,0-24-9.7-24-24.1c0-14,8.2-24.2,22.8-24.2
		c14.4,0,21.7,9.9,21.7,22.7c0,1.7-0.1,3.9-0.3,5.2h-32.2c0.9,7.1,4.7,11.5,12.4,11.5c4.5,0,8.3-1.8,11.1-5.6L234.2,80.1z
		 M224.3,59.8c-0.5-6.6-3.4-11.1-10.2-11.1c-6.7,0-10.1,4.5-10.8,11.1H224.3z"/>
	<path class="st0" d="M269.2,54c0-19.4,11.2-34.2,31.1-34.2C312,19.8,320.8,25,326,34l-9.2,5.9c-3.5-6.5-8.7-10.3-16.2-10.3
		c-12.9,0-18.9,11.1-18.9,24.2c0,13,5.9,24.4,19.3,24.4c7.5,0,12.9-3.8,16.2-10l9.1,5.5C321,82.6,312.5,88,300.5,88
		C280.5,88,269.2,73.5,269.2,54z"/>
	<path class="st0" d="M330.5,63.9c0-13.8,8.5-24.2,23.9-24.2c15.5,0,23.9,10.4,23.9,24.2c0,13.7-8.5,24.1-23.9,24.1
		C338.9,88,330.5,77.7,330.5,63.9z M342.4,63.9c0,8.6,4,15.1,12,15.1c8,0,12-6.6,12-15.1c0-8.6-4-15.2-12-15.2
		C346.4,48.7,342.4,55.3,342.4,63.9z"/>
	<path class="st0" d="M387.5,87.1V20.7h44.3v9.9h-32.1v19h27.9v9.9h-27.9v27.6H387.5z"/>
	<path class="st0" d="M480.7,87.1h-11l-0.3-6.6h-0.2c-2.9,4.6-8,7.5-14.2,7.5c-9.7,0-16.1-6.4-16.1-16V40.7h11.7v29.6
		c0,4.8,2.7,8.6,8.3,8.6c6.2,0,10-4.3,10-10.2V40.7h11.7V87.1z"/>
	<path class="st0" d="M492.8,40.7h11l0.3,6.6h0.2c2.9-4.7,7.9-7.5,14.2-7.5c9.8,0,16.1,6.4,16.1,16v31.4h-11.7V57.4
		c0-4.8-2.9-8.6-8.3-8.6c-6.2,0-10,4.4-10,10.3v27.9h-11.7V40.7z"/>
	<path class="st0" d="M543.4,64.3c0-13.8,7.9-24.5,20.3-24.5c5.9,0,10.8,2.5,14.3,7h0.2v-26h11.7v66.4h-11l-0.3-7h-0.2
		c-3.5,5.1-9,8-15.1,8C550.8,88,543.4,77.5,543.4,64.3z M578.5,63.8c0-9-4.1-15-11.7-15c-7.9,0-11.6,6.9-11.6,15.1
		c0,7.8,3.6,14.9,11.4,14.9C574.3,78.9,578.5,72.5,578.5,63.8z"/>
</g>
</svg>
