<svg width="256" height="29" viewBox="0 0 256 29" fill="none" xmlns="http://www.w3.org/2000/svg">
<path d="M137.849 25.1341L140.463 22.2946C142.184 24.1138 144.584 25.1632 147.261 25.1632C150.554 25.1632 152.028 23.8669 152.028 21.8626C152.028 19.673 149.966 19.0848 146.429 18.2533C142.493 17.2983 138.677 15.9403 138.677 11.3434C138.677 7.24034 141.814 4.2774 147.413 4.2774C151.073 4.2774 153.873 5.47928 155.997 7.57802L153.568 10.4465C151.937 8.7799 149.875 7.76321 147.355 7.76321C144.494 7.76321 143.078 9.12122 143.078 10.9113C143.078 13.0718 145.046 13.5329 148.524 14.3971C152.678 15.4465 156.4 16.7428 156.4 21.4305C156.4 25.686 153.139 28.649 147.231 28.649C143.172 28.649 140.126 27.4144 137.849 25.1305V25.1341Z" fill="#033947"/>
<path d="M165.045 28.3113V8.19892H157.231V4.61871H177.224V8.19892H169.41V28.3113H165.042H165.045Z" fill="#033947"/>
<path d="M194.544 4.61871H198.789V19.9526C198.789 25.381 195.129 28.6526 188.912 28.6526C183.284 28.6526 179.192 25.5662 179.192 19.9526V4.61871H183.56V19.8582C183.56 23.0063 185.59 25.1341 189.036 25.1341C192.482 25.1341 194.54 23.1298 194.54 19.8582V4.61871H194.544Z" fill="#033947"/>
<path d="M202.572 4.61871H211C219.213 4.61871 222.906 10.0471 222.906 16.4341C222.906 23.4057 218.629 28.3113 211.185 28.3113H202.572V4.61871ZM210.786 24.7637C215.553 24.7637 218.447 22.0187 218.447 16.4959C218.447 10.973 215.248 8.16624 210.571 8.16624H206.94V24.7637H210.786Z" fill="#033947"/>
<path d="M225.862 28.3113V4.61871H230.23V28.3113H225.862Z" fill="#033947"/>
<path d="M244.533 4.28101C251.976 4.28101 255.883 9.68037 255.883 16.4341C255.883 23.1879 251.976 28.6489 244.562 28.6489C237.147 28.6489 233.211 23.2496 233.211 16.4958C233.211 9.7421 237.118 4.28101 244.533 4.28101ZM244.562 25.1341C249.177 25.1341 251.421 21.1254 251.421 16.4668C251.421 11.8082 249.235 7.79949 244.529 7.79949C239.823 7.79949 237.67 11.8082 237.67 16.4668C237.67 21.1254 239.856 25.1341 244.562 25.1341Z" fill="#033947"/>
<path d="M23.0099 12.4581L22.6105 9.88373L0 28.5146H3.9651L23.0099 12.4581Z" fill="#033947"/>
<path d="M5.323 28.5146H9.1828L23.6816 16.681L23.1696 13.3986L5.323 28.5146Z" fill="#033947"/>
<path d="M37.9917 9.34994L37.5451 6.46326L10.8025 28.5146H14.7821L37.9917 9.34994Z" fill="#033947"/>
<path d="M16.2854 28.5146H19.7422L38.6926 13.7508L38.1661 10.3739L16.2854 28.5146Z" fill="#033947"/>
<path d="M58.3 3.56933L57.552 0.0871582L21.365 28.5146H26.5755L58.3 3.56933Z" fill="#033947"/>
<path d="M28.126 28.5146H33.4672L59.3384 8.29329L58.5287 4.53516L28.126 28.5146Z" fill="#033947"/>
<path d="M80.1443 10.1415L79.9991 10.9875H75.7507L75.8597 10.363C75.9323 9.92364 76.0049 9.48065 76.0049 9.07761C76.0049 8.01371 75.5656 7.13137 73.8444 7.13137C71.9781 7.13137 71.2083 8.15895 70.9868 9.2991C70.9868 9.44434 70.9505 9.59321 70.9505 9.73846C70.9505 13.1916 78.4196 15.7987 78.4196 21.5648C78.4196 21.9678 78.3833 22.3709 78.3106 22.8138C77.5772 26.8153 75.0899 28.9467 69.8866 28.9467C66.4081 28.9467 64.1387 27.2219 64.1387 23.8777C64.1387 23.3984 64.175 22.8865 64.2839 22.3345L64.5417 20.9402H68.7537L68.5722 22.0041C68.4996 22.4435 68.4632 22.8102 68.4632 23.1806C68.4632 24.7601 69.3056 25.3483 70.8452 25.3483C72.53 25.3483 73.6629 24.5386 73.9207 23.0353C73.957 22.8538 73.9933 22.6323 73.9933 22.4471C73.9933 18.5183 66.6695 16.4595 66.6695 10.806C66.6695 10.4029 66.7058 9.99626 66.7784 9.5569C67.4756 5.5918 70.2207 3.60925 74.8357 3.60925C78.3143 3.60925 80.2932 5.29769 80.2932 8.52932C80.2932 9.00498 80.2569 9.5569 80.1479 10.1451L80.1443 10.1415Z" fill="#033947"/>
<path d="M89.5632 28.5182L89.4906 22.4217H84.5088L82.312 28.5182H78.0273L87.4027 4.02319H93.187L93.993 28.5182H89.5632ZM89.5995 11.7355C89.5995 10.0834 89.5995 8.43128 89.6358 7.1822C88.3177 11.1836 85.5727 18.9722 85.5727 18.9722H89.6757C89.6757 18.9722 89.6031 15.3012 89.6031 11.7355H89.5995Z" fill="#033947"/>
<path d="M110.805 7.54894H103.993L102.82 14.1211H108.717L108.092 17.6469H102.195L100.293 28.5182H95.9355L100.256 4.02319H111.426L110.805 7.54894Z" fill="#033947"/>
<path d="M123.361 15.5409L122.555 20.1668H113.84L113.328 23.1406C113.292 23.3258 113.292 23.5074 113.292 23.6926C113.292 24.8327 114.026 25.4173 115.231 25.4173C116.771 25.4173 117.758 24.8291 118.012 22.8102L118.049 22.5161H122.152L122.116 22.8102C121.64 26.739 118.895 28.9431 114.61 28.9431C111.132 28.9431 109.229 27.2183 109.229 24.0956C109.229 23.58 109.265 23.068 109.374 22.4798L110.583 15.7224C111.389 11.278 113.953 9.11029 118.089 9.11029C122.225 9.11029 123.583 10.7987 123.583 13.591C123.583 14.1792 123.474 14.8401 123.365 15.5372L123.361 15.5409ZM117.501 12.4545C116.001 12.4545 115.01 13.4094 114.755 14.9526L114.425 16.8989H119.076L119.407 14.9526C119.443 14.6948 119.479 14.477 119.479 14.2918C119.479 13.079 118.782 12.4545 117.501 12.4545Z" fill="#033947"/>
<path d="M127.014 8.25336C127.395 8.25336 127.758 8.34776 128.107 8.54021C128.455 8.72902 128.731 9.00498 128.927 9.35719C129.127 9.71304 129.225 10.0834 129.225 10.4719C129.225 10.8604 129.127 11.2272 128.931 11.5794C128.735 11.9316 128.463 12.2039 128.114 12.4C127.765 12.5961 127.399 12.6941 127.01 12.6941C126.622 12.6941 126.258 12.5961 125.906 12.4C125.558 12.2039 125.285 11.9316 125.089 11.5794C124.893 11.2272 124.795 10.8604 124.795 10.4719C124.795 10.0834 124.893 9.71304 125.093 9.35719C125.293 9.00135 125.569 8.72902 125.914 8.54021C126.262 8.3514 126.625 8.25336 127.006 8.25336H127.014ZM127.014 8.68908C126.709 8.68908 126.418 8.76533 126.139 8.91784C125.859 9.07034 125.641 9.2882 125.478 9.57506C125.318 9.86191 125.238 10.1597 125.238 10.4719C125.238 10.7842 125.318 11.0783 125.474 11.3615C125.63 11.6448 125.852 11.8626 126.131 12.0224C126.415 12.1821 126.709 12.2584 127.017 12.2584C127.326 12.2584 127.624 12.1785 127.903 12.0224C128.183 11.8626 128.404 11.6448 128.561 11.3615C128.72 11.0783 128.797 10.7842 128.797 10.4719C128.797 10.1597 128.717 9.85828 128.557 9.57506C128.397 9.2882 128.176 9.07034 127.896 8.91784C127.616 8.76533 127.322 8.68908 127.017 8.68908H127.014ZM126.012 11.6629V9.30636H126.487C126.934 9.30636 127.184 9.30636 127.239 9.31362C127.399 9.32815 127.518 9.35719 127.606 9.40803C127.693 9.45886 127.765 9.53149 127.823 9.63315C127.882 9.73482 127.911 9.84739 127.911 9.97084C127.911 10.1415 127.856 10.2867 127.744 10.4066C127.635 10.5264 127.479 10.6026 127.275 10.6317C127.348 10.6571 127.402 10.6898 127.439 10.7188C127.479 10.7515 127.529 10.8096 127.598 10.9004C127.616 10.9222 127.675 11.0202 127.773 11.1872L128.049 11.6629H127.46L127.264 11.2816C127.13 11.0238 127.021 10.8641 126.934 10.7951C126.847 10.7297 126.738 10.6934 126.603 10.6934H126.48V11.6629H126.004H126.012ZM126.487 10.3231H126.68C126.956 10.3231 127.126 10.3122 127.192 10.2904C127.257 10.2686 127.311 10.2323 127.348 10.1778C127.388 10.1233 127.406 10.0652 127.406 9.99626C127.406 9.92727 127.388 9.8728 127.348 9.82197C127.311 9.77113 127.257 9.73482 127.188 9.71304C127.119 9.69125 126.948 9.68036 126.676 9.68036H126.484V10.3231H126.487Z" fill="#033947"/>
<path d="M62.2942 23.8777C62.2942 23.2133 62.3523 22.596 62.4722 21.986L62.7263 20.6025L63.0059 19.0848H69.5636C67.4467 17.1276 64.8214 14.6912 64.8214 10.8024C64.8214 10.3013 64.865 9.79293 64.9594 9.23375C65.6348 5.38121 68.0131 2.91573 71.7495 2.07696L71.292 0L35.105 28.511H63.9101C62.8679 27.3454 62.2942 25.7731 62.2942 23.8814V23.8777Z" fill="#033947"/>
</svg>
